<?xml version="1.0" encoding="iso-8859-1"?>
<!-- Uploaded to: SVG Repo, www.svgrepo.com, Generator: SVG Repo Mixer Tools -->
<!DOCTYPE svg PUBLIC "-//W3C//DTD SVG 1.1//EN" "http://www.w3.org/Graphics/SVG/1.1/DTD/svg11.dtd">
<svg fill="#000000" height="800px" width="800px" version="1.1" id="Capa_1" xmlns="http://www.w3.org/2000/svg" xmlns:xlink="http://www.w3.org/1999/xlink" 
	 viewBox="0 0 225.498 225.498" xml:space="preserve">
<g>
	<path d="M183.733,83.346c11.238-18.443,19.615-39.446,8.74-50.321c-2.307-2.307-6.541-5.057-13.619-5.057
		c-11.004,0-24.859,6.599-36.701,13.799C137.059,20.778,128.132,0,112.751,0C97.37,0,88.442,20.779,83.345,41.77
		c-11.842-7.2-25.699-13.8-36.705-13.8c-7.076,0-11.313,2.749-13.621,5.056c-10.873,10.876-2.494,31.878,8.742,50.321
		C20.774,88.443,0.001,97.37,0.001,112.75c0,15.381,20.775,24.308,41.762,29.402c-11.236,18.444-19.613,39.447-8.74,50.326
		c2.307,2.306,6.541,5.054,13.617,5.055c0.002,0,0.002,0,0.004,0c11.002,0,24.859-6.602,36.701-13.804
		c5.098,20.99,14.025,41.768,29.406,41.768c15.381,0,24.308-20.777,29.402-41.767c11.842,7.201,25.697,13.8,36.699,13.801
		c0,0,0,0,0.002,0c7.076,0,11.313-2.751,13.617-5.057c10.875-10.874,2.498-31.878-8.738-50.323
		c20.988-5.095,41.764-14.021,41.764-29.402C225.497,97.37,204.722,88.443,183.733,83.346z M178.855,42.968
		c1.732,0,2.691,0.342,3.014,0.663c1.217,1.217,2.334,11-12.521,34.461c-5.436-8.938-12.938-16.498-21.83-22
		C160.702,47.797,172.14,42.968,178.855,42.968z M139.622,68.859c6.773,4.191,12.506,9.924,16.697,16.702h-16.697V68.859z
		 M139.622,100.561h22.924c0.928,3.883,1.406,7.857,1.406,11.873c0,4.022-0.479,7.996-1.402,11.873h-22.928V100.561z M112.751,15
		c1.717,0,9.398,6.105,15.476,33.057c-5.053-1.214-10.234-1.827-15.478-1.827s-10.426,0.613-15.477,1.827
		C103.353,21.103,111.034,15,112.751,15z M100.876,124.307v-23.746h23.746v23.746H100.876z M124.622,139.307v22.92
		c-7.787,1.849-15.953,1.849-23.746-0.001v-22.919H124.622z M100.876,85.561v-22.93c3.875-0.923,7.848-1.4,11.873-1.4
		s7.998,0.477,11.873,1.4v22.93H100.876z M43.626,43.632c0.32-0.321,1.281-0.663,3.014-0.663c6.717,0,18.152,4.827,31.338,13.124
		c-8.889,5.502-16.391,13.062-21.826,22.001C41.294,54.633,42.409,44.848,43.626,43.632z M15.001,112.75
		c0-1.723,6.141-9.448,33.316-15.537c-1.178,4.979-1.772,10.074-1.772,15.22c0,5.384,0.647,10.704,1.928,15.887
		C21.167,122.228,15.001,114.477,15.001,112.75z M46.642,182.533c-1.732-0.001-2.693-0.343-3.012-0.661
		c-1.223-1.223-2.344-11.09,12.717-34.775c5.523,8.96,13.145,16.531,22.139,21.989C65.083,177.581,53.442,182.533,46.642,182.533z
		 M85.876,156.011c-6.768-4.189-12.508-9.93-16.699-16.704h16.699V156.011z M85.876,124.307H62.948
		c-0.926-3.877-1.402-7.85-1.402-11.873c0-4.016,0.479-7.99,1.404-11.873h22.926V124.307z M85.876,85.561H69.179
		c4.193-6.778,9.924-12.511,16.697-16.702V85.561z M112.751,210.498c-1.732,0-9.525-6.206-15.629-33.731
		c10.221,2.486,21.043,2.485,31.256,0C122.276,204.291,114.483,210.498,112.751,210.498z M139.622,156.011v-16.704h16.699
		C152.13,146.081,146.39,151.821,139.622,156.011z M181.864,181.87c-0.32,0.32-1.279,0.663-3.01,0.663c0,0,0,0-0.002,0
		c-6.799-0.001-18.441-4.953-31.84-13.445c8.992-5.458,16.613-13.029,22.137-21.988C184.21,170.783,183.087,180.646,181.864,181.87z
		 M177.024,128.32c1.281-5.183,1.928-10.503,1.928-15.886c0-5.146-0.594-10.242-1.771-15.22
		c27.172,6.089,33.316,13.813,33.316,15.537C210.497,114.477,204.329,122.227,177.024,128.32z"/>
</g>
</svg>